<svg width="35" height="35" viewBox="0 0 35 35" fill="none" xmlns="http://www.w3.org/2000/svg">
<path fill-rule="evenodd" clip-rule="evenodd" d="M2.56282 2.56282C-2.08616e-07 5.12563 0 9.25041 0 17.5C0 25.7495 -2.08616e-07 29.8744 2.56282 32.4371C5.12563 35 9.25041 35 17.5 35C25.7495 35 29.8744 35 32.4371 32.4371C35 29.8744 35 25.7495 35 17.5C35 9.25041 35 5.12563 32.4371 2.56282C29.8744 -2.08616e-07 25.7495 0 17.5 0C9.25041 0 5.12563 -2.08616e-07 2.56282 2.56282ZM20.1042 7.78034C20.8043 7.96794 21.2198 8.68765 21.0322 9.38782L16.5028 26.2915C16.3152 26.9917 15.5955 27.4073 14.8953 27.2197C14.1951 27.0319 13.7797 26.3123 13.9673 25.6121L18.4966 8.70842C18.6842 8.00825 19.404 7.59272 20.1042 7.78034ZM22.697 11.3219C23.2095 10.8094 24.0405 10.8094 24.553 11.3219L24.9177 11.6865C26.0295 12.7983 26.9566 13.7254 27.5936 14.5604C28.2662 15.4417 28.7378 16.3728 28.7378 17.5C28.7378 18.6272 28.2662 19.5583 27.5936 20.4396C26.9566 21.2746 26.0295 22.2017 24.9177 23.3135L24.553 23.678C24.0405 24.1906 23.2095 24.1906 22.697 23.678C22.1844 23.1655 22.1844 22.3345 22.697 21.822L22.9971 21.5217C24.1901 20.3287 24.9895 19.5254 25.5068 18.8473C26.001 18.1996 26.1128 17.8225 26.1128 17.5C26.1128 17.1775 26.001 16.8004 25.5068 16.1527C24.9895 15.4745 24.1901 14.6713 22.9971 13.4783L22.697 13.1781C22.1844 12.6655 22.1844 11.8345 22.697 11.3219ZM10.4473 11.3219C10.9598 10.8094 11.7908 10.8094 12.3034 11.3219C12.816 11.8345 12.816 12.6655 12.3034 13.1781L12.0031 13.4783C10.8103 14.6713 10.0109 15.4745 9.49354 16.1527C8.99929 16.8004 8.88757 17.1775 8.88757 17.5C8.88757 17.8225 8.99929 18.1996 9.49354 18.8473C10.0109 19.5254 10.8103 20.3287 12.0031 21.5217L12.3034 21.822C12.816 22.3345 12.816 23.1655 12.3034 23.678C11.7908 24.1906 10.9598 24.1906 10.4473 23.678L10.0826 23.3135C8.9708 22.2017 8.04366 21.2746 7.40661 20.4396C6.73419 19.5583 6.26257 18.6272 6.26257 17.5C6.26257 16.3728 6.73419 15.4417 7.40661 14.5604C8.04366 13.7254 8.9708 12.7983 10.0826 11.6865L10.4473 11.3219Z" fill="white"/>
</svg>
