<svg width="27" height="27" viewBox="0 0 27 27" fill="none" xmlns="http://www.w3.org/2000/svg">
<path d="M1 10.375V4.125C1 2.39911 2.39911 1 4.125 1H13.5M1.04208 23.3891C1.28727 24.8703 2.57422 26 4.125 26H22.875C24.6009 26 26 24.6009 26 22.875V16.922M1.04208 23.3891C1.01441 23.2219 1 23.0502 1 22.875V18.1875M1.04208 23.3891L7.01191 17.4192C8.07445 16.4895 9.62842 16.3877 10.8031 17.1709L11.5988 17.7012C12.7309 18.4561 14.2217 18.3914 15.2844 17.5413L19.422 14.2311C20.4767 13.3873 21.9458 13.3211 23.0669 14.0444C23.1911 14.1245 23.3017 14.2237 23.4063 14.3283L26 16.922M26 16.922V4.125C26 2.39911 24.6009 1 22.875 1H21.3125M11.9375 8.8125C11.9375 10.5384 10.5384 11.9375 8.8125 11.9375C7.08661 11.9375 5.6875 10.5384 5.6875 8.8125C5.6875 7.08661 7.08661 5.6875 8.8125 5.6875C10.5384 5.6875 11.9375 7.08661 11.9375 8.8125Z" stroke="white" stroke-opacity="0.35" stroke-width="2" stroke-linecap="round" stroke-linejoin="round"/>
</svg>
