<svg width="610" height="444" viewBox="0 0 610 444" fill="none" xmlns="http://www.w3.org/2000/svg">
<path d="M329.433 277.078L321.301 290.817C314.053 303.061 295.948 303.061 288.7 290.817L280.568 277.078C274.261 266.422 271.108 261.096 266.042 258.148C260.977 255.202 254.599 255.092 241.844 254.873C223.014 254.548 211.204 253.394 201.299 249.292C182.922 241.679 168.321 227.08 160.709 208.702C155 194.92 155 177.446 155 142.501V127.5C155 78.3988 155 53.848 166.052 35.8128C172.236 25.721 180.721 17.2363 190.813 11.052C208.848 -8.94073e-07 233.399 0 282.5 0H327.501C376.602 0 401.152 -8.94073e-07 419.188 11.052C429.281 17.2363 437.765 25.721 443.949 35.8128C455.001 53.848 455.001 78.3988 455.001 127.5V142.501C455.001 177.446 455.001 194.92 449.292 208.702C441.68 227.08 427.08 241.679 408.702 249.292C398.797 253.394 386.988 254.548 368.157 254.873C355.401 255.092 349.024 255.202 343.959 258.148C338.893 261.094 335.739 266.422 329.433 277.078Z" fill="#936EFF"/>
<path d="M380.004 135.002C380.004 143.287 373.288 150.002 365.004 150.002C356.719 150.002 350.004 143.287 350.004 135.002C350.004 126.717 356.719 120.002 365.004 120.002C373.288 120.002 380.004 126.717 380.004 135.002Z" fill="white"/>
<path d="M319.996 135.002C319.996 143.287 313.281 150.002 304.996 150.002C296.712 150.002 289.996 143.287 289.996 135.002C289.996 126.717 296.712 120.002 304.996 120.002C313.281 120.002 319.996 126.717 319.996 135.002Z" fill="white"/>
<path d="M260 135.002C260 143.287 253.284 150.002 245 150.002C236.716 150.002 230 143.287 230 135.002C230 126.717 236.716 120.002 245 120.002C253.284 120.002 260 126.717 260 135.002Z" fill="white"/>
<path d="M51.072 438.28C44.672 438.28 38.6987 437.085 33.152 434.696C27.6053 432.307 22.7413 429.021 18.56 424.84C14.3787 420.573 11.0933 415.667 8.704 410.12C6.4 404.488 5.248 398.472 5.248 392.072C5.248 385.672 6.4 379.699 8.704 374.152C11.0933 368.605 14.336 363.741 18.432 359.56C22.6133 355.293 27.4347 352.008 32.896 349.704C38.4427 347.315 44.416 346.12 50.816 346.12C57.216 346.12 63.1467 347.315 68.608 349.704C74.1547 352.008 79.0187 355.293 83.2 359.56C87.3813 363.741 90.624 368.648 92.928 374.28C95.3173 379.827 96.512 385.8 96.512 392.2C96.512 398.6 95.3173 404.616 92.928 410.248C90.624 415.795 87.3813 420.659 83.2 424.84C79.104 429.021 74.2827 432.307 68.736 434.696C63.2747 437.085 57.3867 438.28 51.072 438.28ZM92.032 443.144L51.712 402.824L61.184 393.352L101.504 433.672L92.032 443.144ZM50.816 424.2C56.8747 424.2 62.1653 422.835 66.688 420.104C71.296 417.373 74.88 413.619 77.44 408.84C80.0853 403.976 81.408 398.387 81.408 392.072C81.408 387.379 80.64 383.112 79.104 379.272C77.6533 375.347 75.5627 371.976 72.832 369.16C70.1013 366.259 66.8587 364.04 63.104 362.504C59.4347 360.968 55.3387 360.2 50.816 360.2C44.8427 360.2 39.552 361.565 34.944 364.296C30.4213 366.941 26.8373 370.653 24.192 375.432C21.632 380.211 20.352 385.757 20.352 392.072C20.352 396.765 21.0773 401.117 22.528 405.128C24.064 409.053 26.1547 412.424 28.8 415.24C31.5307 418.056 34.7733 420.275 38.528 421.896C42.2827 423.432 46.3787 424.2 50.816 424.2ZM138.024 438.28C132.819 438.28 128.168 437.128 124.072 434.824C120.061 432.52 116.904 429.363 114.6 425.352C112.381 421.256 111.272 416.563 111.272 411.272V375.56H125.352V410.632C125.352 413.619 125.821 416.179 126.76 418.312C127.784 420.36 129.235 421.939 131.112 423.048C133.075 424.157 135.379 424.712 138.024 424.712C142.12 424.712 145.235 423.517 147.368 421.128C149.587 418.653 150.696 415.155 150.696 410.632V375.56H164.776V411.272C164.776 416.648 163.624 421.384 161.32 425.48C159.101 429.491 155.987 432.648 151.976 434.952C147.965 437.171 143.315 438.28 138.024 438.28ZM179.061 437V375.56H193.141V437H179.061ZM186.101 364.296C183.712 364.296 181.706 363.485 180.085 361.864C178.549 360.243 177.781 358.237 177.781 355.848C177.781 353.459 178.549 351.453 180.085 349.832C181.706 348.211 183.712 347.4 186.101 347.4C188.576 347.4 190.581 348.211 192.117 349.832C193.653 351.453 194.421 353.459 194.421 355.848C194.421 358.237 193.653 360.243 192.117 361.864C190.581 363.485 188.576 364.296 186.101 364.296ZM237.221 438.28C231.162 438.28 225.658 436.872 220.709 434.056C215.845 431.24 212.005 427.4 209.189 422.536C206.373 417.672 204.965 412.253 204.965 406.28C204.965 400.221 206.373 394.803 209.189 390.024C212.005 385.16 215.845 381.32 220.709 378.504C225.658 375.688 231.162 374.28 237.221 374.28C242 374.28 246.437 375.219 250.533 377.096C254.714 378.888 258.256 381.491 261.157 384.904L251.941 394.248C250.149 392.115 247.973 390.536 245.413 389.512C242.938 388.403 240.208 387.848 237.221 387.848C233.722 387.848 230.608 388.659 227.877 390.28C225.232 391.816 223.141 393.949 221.605 396.68C220.154 399.411 219.429 402.611 219.429 406.28C219.429 409.864 220.154 413.064 221.605 415.88C223.141 418.611 225.232 420.787 227.877 422.408C230.608 423.944 233.722 424.712 237.221 424.712C240.208 424.712 242.938 424.2 245.413 423.176C247.973 422.067 250.149 420.445 251.941 418.312L261.157 427.656C258.256 431.069 254.714 433.715 250.533 435.592C246.437 437.384 242 438.28 237.221 438.28ZM310.348 437L284.364 405.64L310.22 375.56H326.988L297.292 409.352L297.932 401.288L328.268 437H310.348ZM271.308 437V344.84H285.388V437H271.308ZM379.307 438.28C372.822 438.28 366.806 437.128 361.259 434.824C355.798 432.435 351.019 429.149 346.923 424.968C342.827 420.701 339.67 415.795 337.451 410.248C335.232 404.616 334.123 398.6 334.123 392.2C334.123 385.8 335.232 379.827 337.451 374.28C339.67 368.648 342.827 363.741 346.923 359.56C351.019 355.379 355.798 352.093 361.259 349.704C366.806 347.315 372.822 346.12 379.307 346.12C386.56 346.12 392.832 347.315 398.123 349.704C403.414 352.093 408.107 355.336 412.203 359.432L402.219 369.416C399.574 366.515 396.331 364.253 392.491 362.632C388.736 361.011 384.342 360.2 379.307 360.2C374.87 360.2 370.816 360.968 367.147 362.504C363.478 364.04 360.278 366.259 357.547 369.16C354.902 371.976 352.854 375.347 351.403 379.272C349.952 383.197 349.227 387.507 349.227 392.2C349.227 396.893 349.952 401.203 351.403 405.128C352.854 409.053 354.902 412.467 357.547 415.368C360.278 418.184 363.478 420.36 367.147 421.896C370.816 423.432 374.87 424.2 379.307 424.2C384.768 424.2 389.376 423.389 393.131 421.768C396.971 420.061 400.214 417.757 402.859 414.856L412.843 424.84C408.747 429.021 403.926 432.307 398.379 434.696C392.832 437.085 386.475 438.28 379.307 438.28ZM466.17 437V401.544C466.17 397.448 464.847 394.077 462.202 391.432C459.642 388.787 456.314 387.464 452.218 387.464C449.487 387.464 447.055 388.061 444.922 389.256C442.789 390.451 441.125 392.115 439.93 394.248C438.735 396.381 438.138 398.813 438.138 401.544L432.634 398.472C432.634 393.779 433.658 389.64 435.706 386.056C437.754 382.387 440.57 379.528 444.154 377.48C447.823 375.347 451.919 374.28 456.442 374.28C461.05 374.28 465.146 375.304 468.73 377.352C472.314 379.4 475.13 382.259 477.178 385.928C479.226 389.512 480.25 393.693 480.25 398.472V437H466.17ZM424.058 437V344.84H438.138V437H424.058ZM520.286 438.28C514.739 438.28 509.705 436.872 505.182 434.056C500.745 431.24 497.203 427.443 494.558 422.664C491.998 417.8 490.718 412.381 490.718 406.408C490.718 400.349 491.998 394.931 494.558 390.152C497.203 385.288 500.745 381.448 505.182 378.632C509.705 375.731 514.739 374.28 520.286 374.28C524.979 374.28 529.118 375.304 532.702 377.352C536.371 379.315 539.273 382.045 541.406 385.544C543.539 389.043 544.606 393.011 544.606 397.448V415.112C544.606 419.549 543.539 423.517 541.406 427.016C539.358 430.515 536.499 433.288 532.83 435.336C529.161 437.299 524.979 438.28 520.286 438.28ZM522.59 424.968C527.795 424.968 531.977 423.219 535.134 419.72C538.377 416.221 539.998 411.741 539.998 406.28C539.998 402.611 539.273 399.368 537.822 396.552C536.371 393.736 534.323 391.56 531.678 390.024C529.118 388.403 526.089 387.592 522.59 387.592C519.177 387.592 516.147 388.403 513.502 390.024C510.942 391.56 508.894 393.736 507.358 396.552C505.907 399.368 505.182 402.611 505.182 406.28C505.182 409.949 505.907 413.192 507.358 416.008C508.894 418.824 510.942 421.043 513.502 422.664C516.147 424.2 519.177 424.968 522.59 424.968ZM539.102 437V420.488L541.534 405.512L539.102 390.664V375.56H553.182V437H539.102ZM578.152 437V349.96H592.232V437H578.152ZM563.432 388.36V375.56H606.952V388.36H563.432Z" fill="white"/>
</svg>
