<svg width="300" height="300" viewBox="0 0 300 300" fill="none" xmlns="http://www.w3.org/2000/svg">
<path d="M174.433 277.078L166.301 290.817C159.053 303.061 140.948 303.061 133.7 290.817L125.568 277.078C119.261 266.422 116.108 261.096 111.042 258.148C105.977 255.202 99.5992 255.092 86.844 254.873C68.0136 254.548 56.2036 253.394 46.2989 249.292C27.9217 241.679 13.3211 227.08 5.70902 208.702C-4.47037e-07 194.92 0 177.446 0 142.501V127.5C0 78.3988 -8.94073e-07 53.848 11.052 35.8128C17.2363 25.721 25.721 17.2363 35.8128 11.052C53.8479 -8.94073e-07 78.3988 0 127.5 0H172.501C221.602 0 246.152 -8.94073e-07 264.188 11.052C274.281 17.2363 282.765 25.721 288.949 35.8128C300.001 53.848 300.001 78.3988 300.001 127.5V142.501C300.001 177.446 300.001 194.92 294.292 208.702C286.68 227.08 272.08 241.679 253.702 249.292C243.797 253.394 231.988 254.548 213.157 254.873C200.401 255.092 194.024 255.202 188.959 258.148C183.893 261.094 180.739 266.422 174.433 277.078Z" fill="#936EFF"/>
<path d="M225.004 135.002C225.004 143.287 218.288 150.002 210.004 150.002C201.719 150.002 195.004 143.287 195.004 135.002C195.004 126.717 201.719 120.002 210.004 120.002C218.288 120.002 225.004 126.717 225.004 135.002Z" fill="white"/>
<path d="M164.996 135.002C164.996 143.287 158.281 150.002 149.996 150.002C141.712 150.002 134.996 143.287 134.996 135.002C134.996 126.717 141.712 120.002 149.996 120.002C158.281 120.002 164.996 126.717 164.996 135.002Z" fill="white"/>
<path d="M105 135.002C105 143.287 98.2843 150.002 90.0001 150.002C81.7158 150.002 75 143.287 75 135.002C75 126.717 81.7158 120.002 90.0001 120.002C98.2843 120.002 105 126.717 105 135.002Z" fill="white"/>
</svg>
